<svg width="17" height="18" viewBox="0 0 17 18" fill="none" xmlns="http://www.w3.org/2000/svg">
<path d="M9 3.75C9 3.33579 8.66421 3 8.25 3C7.83579 3 7.5 3.33579 7.5 3.75V4.56703C6.90431 4.67899 6.4049 4.92838 6.02263 5.29378C5.49283 5.80021 5.25 6.47166 5.25 7.125C5.25 8.54704 6.52518 9.75 8.25 9.75C8.85937 9.75 9.22853 9.87675 9.43207 10.036C9.6024 10.1693 9.75 10.3974 9.75 10.875C9.75 11.3059 9.59329 11.5461 9.38272 11.7022C9.1413 11.8811 8.75386 12 8.25 12C7.68742 12 7.3234 11.8484 7.10835 11.6542C6.90373 11.4695 6.75 11.1713 6.75 10.6875C6.75 10.2733 6.41421 9.9375 6 9.9375C5.58579 9.9375 5.25 10.2733 5.25 10.6875C5.25 11.5162 5.52896 12.2492 6.10319 12.7676C6.49046 13.1173 6.97077 13.3321 7.5 13.4324V14.25C7.5 14.6642 7.83579 15 8.25 15C8.66421 15 9 14.6642 9 14.25V13.4351C9.45731 13.3526 9.89957 13.1862 10.2759 12.9072C10.8875 12.4539 11.25 11.7566 11.25 10.875C11.25 10.0401 10.9649 9.33073 10.3564 8.85463C9.78108 8.4045 9.02524 8.25 8.25 8.25C7.20559 8.25 6.75 7.57796 6.75 7.125C6.75 6.84084 6.85333 6.57479 7.0591 6.37809C7.26135 6.18476 7.625 6 8.25 6C8.75008 6 9.06502 6.22712 9.27813 6.50416C9.38948 6.64892 9.4692 6.80475 9.51981 6.93878C9.55812 7.04022 9.57073 7.10433 9.57488 7.12544C9.57691 7.13573 9.57692 7.1358 9.57692 7.125C9.57692 7.53921 9.91271 7.875 10.3269 7.875C10.7411 7.875 11.0769 7.53921 11.0769 7.125C11.0769 6.90455 11.0122 6.64472 10.9231 6.40887C10.8277 6.15618 10.6802 5.86671 10.4671 5.58959C10.1432 5.16852 9.6605 4.77165 9 4.59547V3.75Z" fill="white" fill-opacity="0.12"/>
<path d="M8.25 0.75C3.69365 0.75 0 4.44365 0 9C0 13.5563 3.69365 17.25 8.25 17.25C12.8063 17.25 16.5 13.5563 16.5 9C16.5 4.44365 12.8063 0.75 8.25 0.75ZM1.5 9C1.5 5.27208 4.52208 2.25 8.25 2.25C11.9779 2.25 15 5.27208 15 9C15 12.7279 11.9779 15.75 8.25 15.75C4.52208 15.75 1.5 12.7279 1.5 9Z" fill="white" fill-opacity="0.12"/>
</svg>
