<svg width="25" height="24" viewBox="0 0 25 24" fill="none" xmlns="http://www.w3.org/2000/svg">
<g clip-path="url(#clip0_2004_1568)">
<path d="M23.9005 4V10H17.9005" stroke="black" stroke-width="2" stroke-linecap="round" stroke-linejoin="round"/>
<path d="M1.90051 20V14H7.90051" stroke="black" stroke-width="2" stroke-linecap="round" stroke-linejoin="round"/>
<path d="M4.41051 9C4.91768 7.56679 5.77965 6.2854 6.91598 5.27542C8.05231 4.26543 9.42598 3.55977 10.9088 3.22426C12.3916 2.88875 13.9353 2.93434 15.3957 3.35677C16.8561 3.77921 18.1858 4.56471 19.2605 5.64L23.9005 10M1.90051 14L6.54051 18.36C7.61526 19.4353 8.94489 20.2208 10.4053 20.6432C11.8658 21.0657 13.4094 21.1112 14.8922 20.7757C16.375 20.4402 17.7487 19.7346 18.885 18.7246C20.0214 17.7146 20.8833 16.4332 21.3905 15" stroke="black" stroke-width="2" stroke-linecap="round" stroke-linejoin="round"/>
</g>
<defs>
<clipPath id="clip0_2004_1568">
<rect width="24" height="24" fill="white" transform="translate(0.900513)"/>
</clipPath>
</defs>
</svg>
