<svg width="20" height="20" viewBox="0 0 20 20" fill="none" xmlns="http://www.w3.org/2000/svg">
<path d="M19.6852 13.4739C19.8699 12.9911 19.4932 12.5 18.9762 12.5C18.6331 12.5 18.3329 12.7239 18.2067 13.043C16.9424 16.2392 13.7448 18.5085 10 18.5085C6.25516 18.5085 3.05757 16.2392 1.79332 13.043C1.66709 12.7239 1.36694 12.5 1.02378 12.5C0.506815 12.5 0.130077 12.9911 0.314784 13.4739C1.7724 17.2843 5.55874 20 10 20C14.4413 20 18.2276 17.2843 19.6852 13.4739Z" fill="white"/>
<path d="M19.6852 6.52606C19.8699 7.0089 19.4932 7.5 18.9762 7.5C18.6331 7.5 18.3329 7.27608 18.2067 6.95697C16.9424 3.76079 13.7448 1.4915 10 1.4915C6.25516 1.4915 3.05757 3.76079 1.79332 6.95697C1.66709 7.27608 1.36694 7.5 1.02378 7.5C0.506815 7.5 0.130077 7.0089 0.314784 6.52606C1.7724 2.71572 5.55874 0 10 0C14.4413 0 18.2276 2.71572 19.6852 6.52606Z" fill="white"/>
</svg>
