<svg width="18" height="18" viewBox="0 0 18 18" fill="none" xmlns="http://www.w3.org/2000/svg">
<path fill-rule="evenodd" clip-rule="evenodd" d="M0.46967 0.21967C0.762563 -0.0732233 1.23744 -0.0732233 1.53033 0.21967L1.89473 0.584066C2.26837 0.957707 2.49858 1.45093 2.54503 1.9773L2.63527 3H16.75C16.9683 3 17.1758 3.09514 17.3183 3.26058C17.4608 3.42602 17.5241 3.64534 17.4917 3.86126L16.5583 10.0838C16.3931 11.1852 15.447 12 14.3332 12H3.42938L3.50138 12.8159C3.53554 13.2031 3.85981 13.5 4.24847 13.5H13.75C14.9926 13.5 16 14.5074 16 15.75C16 16.9926 14.9926 18 13.75 18C12.5074 18 11.5 16.9926 11.5 15.75C11.5 15.487 11.5451 15.2346 11.628 15H6.12197C6.20488 15.2346 6.25 15.487 6.25 15.75C6.25 16.9926 5.24264 18 4 18C2.75736 18 1.75 16.9926 1.75 15.75C1.75 15.1044 2.02188 14.5224 2.45738 14.1121C2.20793 13.7845 2.04579 13.3853 2.00718 12.9478L1.05083 2.10914C1.03535 1.93368 0.958613 1.76927 0.834066 1.64473L0.46967 1.28033C0.176777 0.987437 0.176777 0.512563 0.46967 0.21967ZM13.75 15C13.3358 15 13 15.3358 13 15.75C13 16.1642 13.3358 16.5 13.75 16.5C14.1642 16.5 14.5 16.1642 14.5 15.75C14.5 15.3358 14.1642 15 13.75 15ZM3.29703 10.5H14.3332C14.7045 10.5 15.0199 10.2284 15.0749 9.86126L15.8791 4.5H2.76762L3.29703 10.5ZM4 15C3.58579 15 3.25 15.3358 3.25 15.75C3.25 16.1642 3.58579 16.5 4 16.5C4.41421 16.5 4.75 16.1642 4.75 15.75C4.75 15.3358 4.41421 15 4 15Z" fill="white" fill-opacity="0.12"/>
</svg>
