<svg width="17" height="17" viewBox="0 0 17 17" fill="none" xmlns="http://www.w3.org/2000/svg">
<path d="M6.5 2.25C5.25736 2.25 4.25 3.25736 4.25 4.5C4.25 5.74264 5.25736 6.75 6.5 6.75C7.74264 6.75 8.75 5.74264 8.75 4.5C8.75 3.25736 7.74264 2.25 6.5 2.25ZM2.75 4.5C2.75 2.42893 4.42893 0.75 6.5 0.75C8.57107 0.75 10.25 2.42893 10.25 4.5C10.25 6.57107 8.57107 8.25 6.5 8.25C4.42893 8.25 2.75 6.57107 2.75 4.5ZM0.5 13.5C0.5 11.4289 2.17893 9.75 4.25 9.75H8.75C10.8211 9.75 12.5 11.4289 12.5 13.5V15.75C12.5 16.1642 12.1642 16.5 11.75 16.5C11.3358 16.5 11 16.1642 11 15.75V13.5C11 12.2574 9.99264 11.25 8.75 11.25H4.25C3.00736 11.25 2 12.2574 2 13.5V15.75C2 16.1642 1.66421 16.5 1.25 16.5C0.835786 16.5 0.5 16.1642 0.5 15.75V13.5ZM11.4298 1.43666C11.5852 1.05271 12.0225 0.867449 12.4064 1.02287C13.7793 1.57861 14.75 2.92505 14.75 4.5C14.75 6.07495 13.7793 7.42139 12.4064 7.97714C12.0225 8.13256 11.5852 7.9473 11.4298 7.56334C11.2744 7.17939 11.4597 6.74215 11.8436 6.58673C12.6696 6.25239 13.25 5.44308 13.25 4.5C13.25 3.55692 12.6696 2.74761 11.8436 2.41327C11.4597 2.25786 11.2744 1.82061 11.4298 1.43666ZM13.4326 10.4125C13.5565 10.0172 13.9773 9.79724 14.3726 9.92112C15.8944 10.3981 17 11.819 17 13.5V15.75C17 16.1642 16.6642 16.5 16.25 16.5C15.8358 16.5 15.5 16.1642 15.5 15.75V13.5C15.5 12.4932 14.8382 11.639 13.924 11.3525C13.5287 11.2286 13.3087 10.8078 13.4326 10.4125Z" fill="white" fill-opacity="0.12"/>
</svg>
