<svg width="24" height="24" viewBox="0 0 24 24" fill="none" xmlns="http://www.w3.org/2000/svg">
<path d="M4.40002 19.4667C5.53336 18.6667 6.71669 18.0334 7.95002 17.5667C9.18336 17.1 10.5334 16.8667 12 16.8667C13.4667 16.8667 14.8167 17.1 16.05 17.5667C17.2834 18.0334 18.4667 18.6667 19.6 19.4667C20.5111 18.5556 21.25 17.4667 21.8167 16.2C22.3834 14.9334 22.6667 13.5334 22.6667 12C22.6667 9.04447 21.6278 6.5278 19.55 4.45002C17.4722 2.37225 14.9556 1.33336 12 1.33336C9.04447 1.33336 6.5278 2.37225 4.45002 4.45002C2.37225 6.5278 1.33336 9.04447 1.33336 12C1.33336 13.5334 1.61669 14.9334 2.18336 16.2C2.75002 17.4667 3.48891 18.5556 4.40002 19.4667ZM12.001 12.4667C10.9337 12.4667 10.0334 12.1004 9.30002 11.3677C8.56669 10.635 8.20002 9.73502 8.20002 8.66769C8.20002 7.60036 8.56636 6.70002 9.29902 5.96669C10.0317 5.23336 10.9317 4.86669 11.999 4.86669C13.0664 4.86669 13.9667 5.23302 14.7 5.96569C15.4334 6.69836 15.8 7.59836 15.8 8.66569C15.8 9.73302 15.4337 10.6334 14.701 11.3667C13.9684 12.1 13.0684 12.4667 12.001 12.4667ZM12 23.6C10.3778 23.6 8.86113 23.3 7.45002 22.7C6.03891 22.1 4.81114 21.2778 3.76669 20.2334C2.72225 19.1889 1.90002 17.9611 1.30002 16.55C0.700024 15.1389 0.400024 13.6222 0.400024 12C0.400024 10.3778 0.700024 8.86113 1.30002 7.45002C1.90002 6.03891 2.72225 4.81114 3.76669 3.76669C4.81114 2.72225 6.03891 1.90002 7.45002 1.30002C8.86113 0.700024 10.3778 0.400024 12 0.400024C13.6222 0.400024 15.1389 0.700024 16.55 1.30002C17.9611 1.90002 19.1889 2.72225 20.2334 3.76669C21.2778 4.81114 22.1 6.03891 22.7 7.45002C23.3 8.86113 23.6 10.3778 23.6 12C23.6 13.6222 23.3 15.1389 22.7 16.55C22.1 17.9611 21.2778 19.1889 20.2334 20.2334C19.1889 21.2778 17.9611 22.1 16.55 22.7C15.1389 23.3 13.6222 23.6 12 23.6ZM12 22.6667C13.2445 22.6667 14.4834 22.4389 15.7167 21.9834C16.95 21.5278 18 20.9111 18.8667 20.1334C18 19.4222 16.9834 18.8556 15.8167 18.4334C14.65 18.0111 13.3778 17.8 12 17.8C10.6222 17.8 9.34447 18.0056 8.16669 18.4167C6.98891 18.8278 5.9778 19.4 5.13336 20.1334C6.00002 20.9111 7.05002 21.5278 8.28336 21.9834C9.51669 22.4389 10.7556 22.6667 12 22.6667ZM12 11.5334C12.8 11.5334 13.4778 11.2556 14.0334 10.7C14.5889 10.1445 14.8667 9.46669 14.8667 8.66669C14.8667 7.86669 14.5889 7.18891 14.0334 6.63336C13.4778 6.0778 12.8 5.80002 12 5.80002C11.2 5.80002 10.5222 6.0778 9.96669 6.63336C9.41113 7.18891 9.13336 7.86669 9.13336 8.66669C9.13336 9.46669 9.41113 10.1445 9.96669 10.7C10.5222 11.2556 11.2 11.5334 12 11.5334Z" fill="white"/>
</svg>
