<svg width="17" height="18" viewBox="0 0 17 18" fill="none" xmlns="http://www.w3.org/2000/svg">
<path d="M17 6.74997C17 5.50733 15.9926 4.49997 14.75 4.49997H14.375V2.86937C14.375 1.49244 13.1493 0.438486 11.7879 0.644757L2.41294 2.06521C1.31301 2.23187 0.5 3.17734 0.5 4.28982V15C0.5 16.2426 1.50736 17.25 2.75 17.25H14.75C15.9926 17.25 17 16.2426 17 15V6.74997ZM12.875 2.86937V4.49997H2.75C2.48702 4.49997 2.23458 4.54509 2 4.628V4.28982C2 3.91899 2.271 3.60384 2.63765 3.54828L12.0126 2.12783C12.4664 2.05907 12.875 2.41039 12.875 2.86937ZM2 6.74997C2 6.33576 2.33579 5.99997 2.75 5.99997H14.75C15.1642 5.99997 15.5 6.33576 15.5 6.74997V8.24997H12.875C11.4253 8.24997 10.25 9.42523 10.25 10.875C10.25 12.3247 11.4253 13.5 12.875 13.5H15.5V15C15.5 15.4142 15.1642 15.75 14.75 15.75H2.75C2.33579 15.75 2 15.4142 2 15V6.74997ZM15.5 12H12.875C12.2537 12 11.75 11.4963 11.75 10.875C11.75 10.2537 12.2537 9.74997 12.875 9.74997H15.5V12Z" fill="white" fill-opacity="0.12"/>
</svg>
