<svg width="420" height="420" viewBox="0 0 420 420" fill="none" xmlns="http://www.w3.org/2000/svg">
<rect width="420" height="420" rx="210" fill="#AC69F7"/>
<path d="M269.604 198.942V184.032L251.874 181.14C250.818 176.946 249.174 172.998 246.996 169.374L257.334 154.638L246.798 144.108L232.254 154.566C228.63 152.37 224.652 150.69 220.428 149.646L217.332 132H202.428L199.56 149.592C195.324 150.63 191.334 152.28 187.698 154.464L173.196 144.108L162.66 154.638L172.86 169.224C170.652 172.878 168.978 176.862 167.91 181.122L150.396 184.032V198.936L167.892 202.032C168.948 206.292 170.628 210.282 172.836 213.942L162.498 228.396L173.034 238.938L187.638 228.714C191.286 230.904 195.264 232.566 199.5 233.604L202.428 251.208H217.332L220.458 233.562C224.664 232.494 228.636 230.82 232.26 228.618L246.966 238.944L257.496 228.402L247.002 213.828C249.174 210.204 250.824 206.25 251.868 202.044L269.604 198.942ZM210 212.388C198.522 212.388 189.216 203.088 189.216 191.604C189.216 180.132 198.522 170.826 210 170.826C221.478 170.826 230.778 180.132 230.778 191.604C230.784 203.088 221.478 212.388 210 212.388Z" fill="white"/>
<path d="M276 245.604V269.604C276 272.91 273.312 275.604 270 275.604H150C146.688 275.604 144 272.91 144 269.604V245.604H132V269.604C132 279.54 140.064 287.604 150 287.604H270C279.936 287.604 288 279.54 288 269.604V245.604H276Z" fill="white"/>
</svg>
