<svg width="34" height="34" viewBox="0 0 34 34" fill="none" xmlns="http://www.w3.org/2000/svg">
<path d="M33.3167 25.4333L24.0667 16.1833L26.6833 13.5667L20.4333 7.31667L17.8167 9.93333L8.56665 0.683334L0.683319 8.56667L9.93332 17.8167L1.99999 25.75V32H8.24999L16.1833 24.0667L25.4333 33.3167L33.3167 25.4333V25.4333ZM12.3 15.45L5.39999 8.56667L8.56665 5.4L10.6833 7.51667L8.69999 9.5L11.05 11.85L13.0333 9.86667L15.45 12.2833L12.3 15.45V15.45ZM18.55 21.7L21.7167 18.5333L24.1333 20.95L22.15 22.9333L24.5 25.2833L26.4833 23.3L28.6 25.4167L25.4333 28.5833L18.55 21.7V21.7ZM22.2217 5.53833L26.4517 1.30667L32.6983 7.55333L28.4683 11.785L22.2217 5.53833Z" fill="#F9995D"/>
</svg>
